<?xml version="1.0" encoding="UTF-8"?>
<svg id="Layer_1" data-name="Layer 1" xmlns="http://www.w3.org/2000/svg" viewBox="0 0 1169.6 280.7">
  <defs>
    <style>
      .cls-1 {
        fill: #676767;
      }

      .cls-1, .cls-2, .cls-3 {
        stroke-width: 0px;
      }

      .cls-4 {
        stroke: #293277;
      }

      .cls-4, .cls-5, .cls-6 {
        fill: none;
        stroke-miterlimit: 10;
        stroke-width: 20px;
      }

      .cls-7 {
        isolation: isolate;
      }

      .cls-5 {
        stroke: #cb171a;
      }

      .cls-2 {
        fill: #cb171a;
      }

      .cls-6 {
        stroke: #676767;
      }

      .cls-3 {
        fill: #293277;
      }
    </style>
  </defs>
  <g class="cls-7">
    <path class="cls-3" d="M303.4,240.2l3.7-.2c.2,1,.6,1.8,1.2,2.5s1.6,1.2,3,1.6,2.9.6,4.5.6,2.8-.2,4-.5,2-.7,2.5-1.2c.6-.5.8-1.1.8-1.7s-.3-1.2-.8-1.7c-.5-.5-1.4-.9-2.7-1.2-.8-.2-2.5-.5-5.3-1-2.7-.4-4.6-.9-5.7-1.3-1.4-.5-2.5-1.1-3.2-1.9-.7-.7-1-1.6-1-2.5s.4-2,1.3-2.8c.8-.9,2.1-1.6,3.7-2,1.6-.5,3.4-.7,5.4-.7s4.1.2,5.8.7,3,1.2,3.9,2.1c.9.9,1.4,2,1.5,3.2l-3.7.2c-.2-1.3-.9-2.2-2-2.9-1.2-.6-2.9-1-5.1-1s-4.1.3-5.2.9c-1.1.6-1.6,1.3-1.6,2.1s.4,1.3,1.1,1.8c.8.5,2.7.9,5.9,1.4,3.2.5,5.4.9,6.5,1.3,1.7.5,3,1.2,3.8,2.1.8.8,1.2,1.8,1.2,2.9s-.5,2.1-1.4,3c-.9.9-2.2,1.7-3.9,2.2-1.7.5-3.6.8-5.7.8s-4.9-.3-6.7-.8c-1.8-.5-3.2-1.3-4.3-2.4-1-1.1-1.6-2.3-1.6-3.6Z"/>
  </g>
  <g class="cls-7">
    <path class="cls-3" d="M343.9,236.8c0-3.3,1.2-5.9,3.5-7.8,2.3-1.9,5.3-2.8,8.9-2.8s4.5.4,6.5,1.3c1.9.9,3.4,2.1,4.4,3.7,1,1.6,1.5,3.4,1.5,5.4s-.5,3.9-1.6,5.5c-1.1,1.6-2.6,2.8-4.5,3.6-1.9.8-4,1.2-6.3,1.2s-4.6-.5-6.5-1.4c-1.9-.9-3.4-2.2-4.4-3.7-1-1.6-1.5-3.2-1.5-5ZM347.4,236.9c0,2.4.8,4.3,2.5,5.7,1.7,1.4,3.8,2.1,6.3,2.1s4.7-.7,6.4-2.1c1.7-1.4,2.5-3.4,2.5-6s-.4-3.1-1.1-4.3-1.8-2.2-3.1-2.8c-1.4-.7-2.9-1-4.6-1-2.4,0-4.5.6-6.3,1.9-1.7,1.3-2.6,3.4-2.6,6.5Z"/>
  </g>
  <g class="cls-7">
    <path class="cls-3" d="M387.1,246.6v-20.4h3.1v18h11.4v2.4h-14.4Z"/>
  </g>
  <g class="cls-7">
    <path class="cls-3" d="M441.8,226.2h3.4v11.8c0,2.1-.3,3.7-.9,4.9-.6,1.2-1.6,2.2-3.2,2.9-1.5.8-3.5,1.1-6,1.1s-4.4-.3-5.9-1c-1.5-.7-2.6-1.6-3.3-2.9-.7-1.2-1-3-1-5.1v-11.8h3.4v11.8c0,1.8.2,3.1.6,3.9.4.8,1.1,1.5,2.2,1.9,1,.5,2.3.7,3.7.7,2.5,0,4.3-.4,5.4-1.3,1.1-.9,1.6-2.6,1.6-5.2v-11.8Z"/>
  </g>
  <g class="cls-7">
    <path class="cls-3" d="M486.2,239.6l3.4.7c-.7,2.2-2,3.8-3.9,5-1.9,1.1-4.1,1.7-6.8,1.7s-5.1-.4-6.8-1.3c-1.7-.9-3.1-2.2-4-3.8-.9-1.7-1.4-3.5-1.4-5.4s.5-3.9,1.5-5.5c1-1.6,2.5-2.7,4.4-3.5,1.9-.8,4-1.2,6.3-1.2s4.8.5,6.5,1.5c1.8,1,3,2.5,3.7,4.3l-3.4.6c-.6-1.5-1.5-2.5-2.6-3.2-1.1-.7-2.6-1-4.3-1s-3.6.4-5,1.1-2.3,1.7-2.8,3c-.5,1.2-.8,2.5-.8,3.9s.3,3.2,1,4.5c.6,1.3,1.6,2.2,3,2.9s2.8.9,4.4.9,3.5-.4,4.9-1.3c1.3-.9,2.2-2.1,2.7-3.8Z"/>
  </g>
  <rect id="I" class="cls-3" x="511.8" y="226.2" width="3.3" height="20.7"/>
  <g class="cls-7">
    <path class="cls-3" d="M535.3,236.8c0-3.3,1.2-5.9,3.5-7.8,2.3-1.9,5.3-2.8,8.9-2.8s4.5.4,6.5,1.3c1.9.9,3.4,2.1,4.4,3.7,1,1.6,1.5,3.4,1.5,5.4s-.5,3.9-1.6,5.5c-1.1,1.6-2.6,2.8-4.5,3.6-1.9.8-4,1.2-6.3,1.2s-4.6-.5-6.5-1.4c-1.9-.9-3.4-2.2-4.4-3.7-1-1.6-1.5-3.2-1.5-5ZM538.8,236.9c0,2.4.8,4.3,2.5,5.7,1.7,1.4,3.8,2.1,6.3,2.1s4.7-.7,6.4-2.1c1.7-1.4,2.5-3.4,2.5-6s-.4-3.1-1.1-4.3-1.8-2.2-3.1-2.8c-1.4-.7-2.9-1-4.6-1-2.4,0-4.5.6-6.3,1.9-1.7,1.3-2.6,3.4-2.6,6.5Z"/>
  </g>
  <g class="cls-7">
    <path class="cls-3" d="M579.5,247v-20.7h3.5l13.6,16.3v-16.3h3.3v20.7h-3.5l-13.6-16.3v16.3h-3.3Z"/>
  </g>
  <g class="cls-7">
    <path class="cls-3" d="M622.6,247v-20.7h18.7v2.4h-15.3v6.4h14.3v2.4h-14.3v7.1h15.9v2.4h-19.3Z"/>
  </g>
  <g class="cls-7">
    <path class="cls-3" d="M659,240.2l3.2-.2c.2,1,.5,1.8,1.1,2.5s1.4,1.2,2.6,1.6,2.5.6,4,.6,2.5-.2,3.5-.5c1-.3,1.7-.7,2.2-1.2.5-.5.7-1.1.7-1.7s-.2-1.2-.7-1.6c-.5-.5-1.2-.9-2.3-1.2-.7-.2-2.2-.5-4.6-1-2.4-.4-4-.9-5-1.3-1.2-.5-2.2-1.1-2.8-1.9-.6-.7-.9-1.6-.9-2.5s.4-2,1.1-2.8c.7-.9,1.8-1.5,3.2-2,1.4-.5,3-.7,4.7-.7s3.6.2,5.1.7c1.5.5,2.6,1.2,3.4,2.1s1.2,2,1.3,3.2l-3.3.2c-.2-1.3-.8-2.2-1.8-2.9-1-.6-2.5-1-4.5-1s-3.6.3-4.5.9c-.9.6-1.4,1.3-1.4,2.1s.3,1.3,1,1.8c.7.5,2.4.9,5.2,1.4,2.8.5,4.7.9,5.7,1.3,1.5.5,2.6,1.2,3.3,2,.7.8,1.1,1.8,1.1,2.8s-.4,2.1-1.2,3-1.9,1.7-3.4,2.2c-1.5.5-3.1.8-5,.8s-4.3-.3-5.9-.8c-1.6-.5-2.8-1.3-3.7-2.4-.9-1.1-1.4-2.3-1.4-3.6Z"/>
  </g>
  <g class="cls-7">
    <path class="cls-3" d="M749.1,247v-20.7h18.7v2.4h-15.3v6.3h14.3v2.4h-14.3v7.1h15.9v2.4h-19.3Z"/>
  </g>
  <g class="cls-7">
    <path class="cls-3" d="M788.6,247v-20.7h3.5l13.6,16.3v-16.3h3.3v20.7h-3.5l-13.6-16.3v16.3h-3.3Z"/>
  </g>
  <g class="cls-7">
    <path class="cls-3" d="M878.4,240.2l3.2-.2c.2,1,.5,1.8,1.1,2.5s1.4,1.2,2.6,1.6,2.5.6,4,.6,2.5-.2,3.5-.5,1.7-.7,2.2-1.2c.5-.5.7-1.1.7-1.7s-.2-1.2-.7-1.6c-.5-.5-1.2-.9-2.3-1.2-.7-.2-2.2-.5-4.6-1-2.4-.4-4-.9-5-1.3-1.2-.5-2.2-1.1-2.8-1.9-.6-.7-.9-1.6-.9-2.5s.4-2,1.1-2.8c.7-.9,1.8-1.5,3.2-2,1.4-.5,3-.7,4.7-.7s3.6.2,5.1.7,2.6,1.2,3.4,2.1c.8.9,1.2,2,1.3,3.2l-3.3.2c-.2-1.3-.8-2.2-1.8-2.9-1-.6-2.5-1-4.5-1s-3.6.3-4.5.9c-.9.6-1.4,1.3-1.4,2.1s.3,1.3,1,1.8c.7.5,2.4.9,5.2,1.4,2.8.5,4.7.9,5.7,1.3,1.5.5,2.6,1.2,3.3,2,.7.8,1.1,1.8,1.1,2.9s-.4,2.1-1.2,3c-.8.9-1.9,1.7-3.4,2.2s-3.1.8-5,.8-4.3-.3-5.9-.8c-1.6-.5-2.8-1.3-3.7-2.4-.9-1.1-1.4-2.3-1.4-3.6Z"/>
  </g>
  <rect id="I-2" data-name="I" class="cls-3" x="920.6" y="226.2" width="3.2" height="20.7"/>
  <g class="cls-7">
    <path class="cls-3" d="M947.2,240.2l3.2-.2c.2,1,.5,1.8,1.1,2.5s1.4,1.2,2.6,1.6,2.5.6,4,.6,2.5-.2,3.5-.5c1-.3,1.7-.7,2.2-1.2.5-.5.7-1.1.7-1.7s-.2-1.2-.7-1.6c-.5-.5-1.2-.9-2.3-1.2-.7-.2-2.2-.5-4.6-1-2.4-.4-4-.9-5-1.2-1.2-.5-2.2-1.1-2.8-1.9-.6-.7-.9-1.6-.9-2.5s.4-2,1.1-2.8c.7-.9,1.8-1.5,3.2-2,1.4-.5,3-.7,4.7-.7s3.6.2,5.1.7c1.5.5,2.6,1.2,3.4,2.1s1.2,2,1.3,3.2l-3.3.2c-.2-1.3-.8-2.2-1.8-2.9-1-.6-2.5-1-4.5-1s-3.6.3-4.5.9c-.9.6-1.4,1.3-1.4,2.1s.3,1.3,1,1.8c.7.5,2.4.9,5.2,1.4,2.8.5,4.7.9,5.7,1.3,1.5.5,2.6,1.2,3.3,2,.7.8,1.1,1.8,1.1,2.9s-.4,2.1-1.2,3c-.8.9-1.9,1.7-3.4,2.2-1.5.5-3.1.8-5,.8s-4.3-.3-5.9-.8c-1.6-.5-2.8-1.3-3.7-2.4-.9-1.1-1.4-2.3-1.4-3.6Z"/>
  </g>
  <g class="cls-7">
    <path class="cls-3" d="M993.2,247v-18.3h-8.5v-2.4h20.5v2.4h-8.6v18.3h-3.4Z"/>
  </g>
  <g class="cls-7">
    <path class="cls-3" d="M1025.9,247v-20.7h18.7v2.4h-15.3v6.3h14.3v2.4h-14.3v7.1h15.9v2.4h-19.3Z"/>
  </g>
  <g class="cls-7">
    <path class="cls-3" d="M1066.8,247v-20.7h6.2l7.4,14.7c.7,1.4,1.2,2.4,1.5,3.1.4-.8.9-1.9,1.7-3.3l7.5-14.4h5.6v20.7h-4v-17.3l-9.1,17.3h-3.7l-9-17.6v17.6h-4Z"/>
  </g>
  <g class="cls-7">
    <path class="cls-3" d="M1112.1,247l9.9-20.8h3.7l10.6,20.8h-3.9l-3-6.3h-10.8l-2.8,6.3h-3.6ZM1119.6,238.5h8.8l-2.7-5.7c-.8-1.7-1.4-3.2-1.8-4.3-.3,1.3-.8,2.7-1.4,4l-2.8,6.1Z"/>
  </g>
  <g class="cls-7">
    <path class="cls-3" d="M1147.2,240.2l3.2-.2c.2,1,.5,1.8,1.1,2.5s1.4,1.2,2.6,1.6,2.5.6,4,.6,2.5-.2,3.5-.5,1.7-.7,2.2-1.2c.5-.5.7-1.1.7-1.7s-.2-1.2-.7-1.6c-.5-.5-1.2-.9-2.3-1.2-.7-.2-2.2-.5-4.6-1-2.4-.4-4-.9-5-1.2-1.2-.5-2.2-1.1-2.8-1.9-.6-.7-.9-1.6-.9-2.5s.4-2,1.1-2.8c.7-.9,1.8-1.5,3.2-2,1.4-.5,3-.7,4.7-.7s3.6.2,5.1.7,2.6,1.2,3.4,2.1c.8.9,1.2,2,1.3,3.2l-3.3.2c-.2-1.3-.8-2.2-1.8-2.9-1-.6-2.5-1-4.5-1s-3.6.3-4.5.9-1.4,1.3-1.4,2.1.3,1.3,1,1.8c.7.5,2.4.9,5.2,1.4,2.8.5,4.7.9,5.7,1.3,1.5.5,2.6,1.2,3.3,2,.7.8,1.1,1.8,1.1,2.9s-.4,2.1-1.2,3c-.8.9-1.9,1.7-3.4,2.2-1.5.5-3.1.8-5,.8s-4.3-.3-5.9-.8c-1.6-.5-2.8-1.3-3.7-2.4-.9-1.1-1.4-2.3-1.4-3.6Z"/>
  </g>
  <path id="Parte_M" data-name="Parte M" class="cls-4" d="M1159.6,174.6v-96.2c-2.5-7-7.3-16.7-16.8-23.9-18.3-14.1-46.5-13.4-71.2,1.8"/>
  <path id="Parte_M-2" data-name="Parte M" class="cls-4" d="M959.6,174.6v-95.2c7.4-21.2,27.2-35.5,49.2-35.3,21.7.2,41.1,14.3,48.3,35.3v95.2"/>
  <path id="E" class="cls-5" d="M753.7,116.1h126.8c17.3-5.7,28.2-22.4,26.4-39.3-1.5-14.3-11.8-28.1-26.2-32.7h-127.2c-2.2-.2-18.5.4-30,13-7.3,8-8.6,17.2-9,20.7v61.1"/>
  <path id="Linea_T" data-name="Linea T" class="cls-4" d="M492.5,34.7v71.2c-.1,3.4-.8,25.5,16.6,42.7,16.5,16.2,36.9,16.2,40.6,16.1h364.8"/>
  <line id="Linea_T-2" data-name="Linea T" class="cls-4" x1="660.6" y1="63.8" x2="492.5" y2="63.8"/>
  <path id="S" class="cls-6" d="M453.9,44.8h-122.2c-17.7-.8-32.4,13.7-32.2,30.9.2,16.9,14.9,30.7,32.2,30h83.9c20.6-1.5,36.8,15.5,35.7,32.8-1,15.3-14.9,26.5-32.9,26.3"/>
  <rect id="Cuadro_I" data-name="Cuadro I" class="cls-1" x="257.3" y="260.7" width="20" height="20"/>
  <rect id="Cuadro_I-2" data-name="Cuadro I" class="cls-1" x="257.3" y="225" width="20" height="20"/>
  <rect id="Cuadro_I-3" data-name="Cuadro I" class="cls-1" x="257.3" y="187.5" width="20" height="20"/>
  <rect id="Cuadro_I-4" data-name="Cuadro I" class="cls-1" x="256.7" y="154" width="20" height="20"/>
  <path id="Linea_I" data-name="Linea I" class="cls-6" d="M216,44.8c19.7-.1,29.5,7.4,33.3,10.9,13,12,14.5,31.4,16.7,58.1.7,8.2.8,15.2.7,20"/>
  <rect id="Cuadro_I-5" data-name="Cuadro I" class="cls-2" x="246.7" width="20" height="20"/>
  <path id="C" class="cls-6" d="M195.9,44.8h-123.6c-33.8-1.6-62.4,25.8-62.3,59.2.1,33.3,29.3,60.7,62.6,60.6,47.6,0,94.8-.6,142.3-.6"/>
</svg>