<?xml version="1.0" encoding="utf-8"?>
<!-- Generator: Adobe Illustrator 26.5.2, SVG Export Plug-In . SVG Version: 6.00 Build 0)  -->
<svg version="1.1" xmlns="http://www.w3.org/2000/svg" xmlns:xlink="http://www.w3.org/1999/xlink" x="0px" y="0px"
	 viewBox="0 0 1050 357" style="enable-background:new 0 0 1050 357;" xml:space="preserve">
<style type="text/css">
	.st0{fill:none;stroke:#000000;stroke-miterlimit:10;}
	.st1{fill:#FFFFFF;}
	.st2{fill:none;stroke:#000000;stroke-width:0.5;stroke-miterlimit:10;}
	.st3{fill:#FFFFFF;stroke:#000000;stroke-width:1.5;stroke-miterlimit:10;}
	.st4{fill:none;stroke:#FFFFFF;stroke-width:0.75;stroke-miterlimit:10;}
	.st5{fill:none;stroke:#FFFFFF;stroke-width:1.5;stroke-miterlimit:10;}
	.st6{fill:#FFFFFF;stroke:#FFFFFF;stroke-width:0.5;stroke-miterlimit:10;}
	.st7{fill:none;stroke:#FFFFFF;stroke-width:0.5;stroke-miterlimit:10;}
	.st8{fill:none;stroke:#FFFFFF;stroke-width:0.25;stroke-miterlimit:10;}
</style>
<g id="Estructura">
	<polygon class="st0" points="206,100 461.5,137.5 778.5,107 545,56.6 	"/>
	<g>
		<g>
			<path class="st1" d="M532.5,127.9c-8,1.1-15.9,1.8-24,2.2c-3.8,0.2-3.9,6.2,0,6c8.6-0.4,17.1-1.2,25.6-2.4
				C537.9,133.2,536.3,127.4,532.5,127.9L532.5,127.9z"/>
		</g>
	</g>
	<polygon class="st0" points="545,18 202,68 202,100 545,56.6 	"/>
	<polygon class="st0" points="545,18 782,76.5 782,107 545,56.6 	"/>
	<line class="st2" x1="544.7" y1="42.4" x2="202" y2="92"/>
	<line class="st2" x1="544.6" y1="37.5" x2="201.9" y2="87.2"/>
	<line class="st2" x1="782" y1="95.5" x2="545" y2="37.5"/>
	<line class="st2" x1="781.7" y1="100.2" x2="544.7" y2="42.2"/>
	<polygon class="st0" points="505.5,108.2 523.8,105.6 523.8,351 505.5,351 	"/>
	<polygon class="st0" points="523.8,105.6 536.5,108.7 536.5,351 523.8,351 	"/>
	<rect x="288" y="351" class="st0" width="325.8" height="5.2"/>
	<line class="st0" x1="1050.2" y1="356.2" x2="-0.5" y2="356.2"/>
</g>
<g id="_x34_04">
	<g>
		<g>
			<g>
				<path class="st3" d="M288.1,323.1l29.2-63.5h16.2l-28.5,62.8h42.7v14.1h-59.7V323.1z M326.1,297h14.8v53.5h-14.8V297z"/>
				<path class="st3" d="M369,344.6c-4.5-4.5-6.8-10.9-6.8-19v-41.3c0-8.2,2.3-14.5,6.8-19c4.5-4.5,11.1-6.8,19.8-6.8
					c8.7,0,15.3,2.2,19.8,6.8c4.5,4.5,6.8,10.9,6.8,19.1v41.3c0,8.2-2.3,14.5-6.8,19c-4.5,4.5-11.1,6.8-19.8,6.8
					C380.1,351.4,373.5,349.1,369,344.6z M397.6,333.5c1.9-2.4,2.8-5.7,2.8-10.2v-36.9c0-4.4-0.9-7.8-2.8-10.2
					c-1.9-2.4-4.8-3.5-8.8-3.5s-6.9,1.2-8.8,3.5c-1.9,2.4-2.8,5.7-2.8,10.2v36.9c0,4.4,0.9,7.8,2.8,10.2c1.9,2.4,4.8,3.5,8.8,3.5
					S395.7,335.9,397.6,333.5z"/>
				<path class="st3" d="M431.6,323.1l29.2-63.5h16.2l-28.5,62.8h42.7v14.1h-59.7V323.1z M469.5,297h14.8v53.5h-14.8V297z"/>
			</g>
		</g>
	</g>
</g>
<g id="NotFound">
	<path class="st3" d="M225.5,51.3l6.6-1.1l16.3,33.2l-0.6,0.9V47.6l6.2-1v46.9l-7,0.9l-16.2-32.8l0.6-0.9v35.7l-5.9,0.7V51.3z"/>
	<g>
		<g>
			<path class="st1" d="M248.6,85.2c0.3,0,0.6,0,0.9,0c0,0,0-1.7,0-1.9c0-0.4,0-0.9,0-1.3c0-0.1,0-0.5,0-0.5c-0.3,0-0.6,0-0.9,0
				C248.6,81.5,248.6,85.2,248.6,85.2L248.6,85.2z"/>
		</g>
	</g>
	<line class="st4" x1="246.5" y1="82.5" x2="249.5" y2="82.5"/>
	<g>
		<g>
			<path class="st1" d="M246.4,83.6c-0.2,0.7-0.2,1.4-0.2,2.1c0.1,0.8,0.6,1.5,1.5,1.5c0.8,0,1.6-0.7,1.5-1.5c0-0.3,0-0.5,0-0.8
				c0,0,0.1-0.4,0-0.2c0,0.2,0.1-0.2,0.1-0.3c0.2-0.8-0.2-1.7-1-1.8C247.5,82.4,246.6,82.8,246.4,83.6L246.4,83.6z"/>
		</g>
	</g>
	<line class="st5" x1="229" y1="63" x2="233" y2="63"/>
	<g>
		<g>
			<path class="st1" d="M232.3,57.9c-0.4,0.1-0.8,0.1-1.2,0.2c-0.2,0-0.4,0-0.6,0.1c-0.2,0.1-0.4,0.1-0.6,0.2c0,0,0,0.8,0,0.7
				c0,0.6,0,1.2,0,1.8c0,0.6,0,1.2,0,1.8c0,0.1,0,0.3,0,0.4c0,0.1,0,0.2,0,0.3c0.2-0.1,0.4-0.1,0.6-0.2c0.2-0.1,0.4-0.1,0.6-0.1
				c0.4,0,0.8-0.1,1.2-0.2c0,0,0-0.8,0-0.7c0-0.6,0-1.2,0-1.8c0-0.6,0-1.2,0-1.8C232.3,58.5,232.3,57.9,232.3,57.9L232.3,57.9z"/>
		</g>
	</g>
	<path class="st3" d="M267.3,90.6c-1.8-0.9-3.2-2.4-4.1-4.5c-0.9-2.1-1.4-4.7-1.4-7.8v-5.5c0-3.1,0.5-5.7,1.4-8.1
		c0.9-2.3,2.3-4.2,4.1-5.6c1.8-1.4,4-2.3,6.5-2.7c2.6-0.4,4.8-0.2,6.6,0.7c1.8,0.9,3.3,2.3,4.2,4.4c1,2.1,1.5,4.7,1.5,7.8V75
		c0,3.1-0.5,5.9-1.5,8.2c-1,2.3-2.4,4.2-4.2,5.6c-1.8,1.4-4,2.3-6.6,2.6C271.3,91.8,269.1,91.5,267.3,90.6z M277.9,81.5
		c1-1.4,1.5-3.2,1.5-5.6v-5.7c0-2.3-0.5-4-1.5-5.1c-1-1.1-2.3-1.5-4.1-1.3c-1.8,0.3-3.1,1.1-4.1,2.5c-1,1.4-1.4,3.2-1.4,5.5v5.6
		c0,2.3,0.5,4,1.4,5.1c0.9,1.1,2.3,1.6,4.1,1.3C275.6,83.7,276.9,82.9,277.9,81.5z"/>
	<path class="st3" d="M291.5,54.1l14.1-2.2V59l-14.1,2.1V54.1z M296.3,86c-1.2-1.4-1.8-3.6-1.8-6.6V43.5l6.9-1.1v34.9
		c0,0.9,0.1,1.5,0.4,1.9c0.3,0.4,0.7,0.6,1.3,0.5l2.4-0.3v7.7l-3.7,0.5C299.3,87.9,297.5,87.4,296.3,86z"/>
	<line class="st6" x1="293.5" y1="54.8" x2="296.5" y2="54.4"/>
	<line class="st6" x1="300.2" y1="53.8" x2="303.7" y2="53.2"/>
	<line class="st6" x1="292.8" y1="59.9" x2="295.8" y2="59.4"/>
	<line class="st6" x1="299.2" y1="58.9" x2="302.8" y2="58.4"/>
	<g>
		<g>
			<path class="st1" d="M300.1,55.1c0,0.1,0,0.2,0,0.3c0-0.2,0-0.1,0,0c0,0.1-0.1,0.3-0.1,0.4c-0.1,0.4-0.2,0.8-0.2,1.3
				c0,0.8,0.7,1.5,1.5,1.5c0.8,0,1.5-0.7,1.5-1.5c0-0.2,0-0.2,0,0c0-0.1,0-0.2,0.1-0.3c0-0.1,0.1-0.3,0.1-0.4
				c0.1-0.4,0.2-0.8,0.1-1.3c0-0.8-0.7-1.5-1.5-1.5C300.8,53.6,300.1,54.2,300.1,55.1L300.1,55.1z"/>
		</g>
	</g>
	<g>
		<g>
			<path class="st1" d="M300.7,51.7c-0.9,0.1-1.9,0.2-2.8,0.3c-0.9,0.1-1.8,0.2-2.6,0.5c0,0,0,0.4,0,0.4c0,0.3,0,0.6,0,0.9
				c0,0.3,0,0.6,0,0.9c0,0,0,0.4,0,0.4c0.8-0.3,1.7-0.4,2.6-0.5c0.9-0.1,1.9-0.1,2.8-0.3c0,0,0-1.2,0-1.2
				C300.7,52.9,300.7,51.7,300.7,51.7L300.7,51.7z"/>
		</g>
	</g>
	<g>
		<g>
			<path class="st1" d="M300.7,51.4c-0.1,0-0.1,0-0.2,0c0,0,0,0.1,0,0.1c0,0.1,0,0.2,0,0.3c0,0.3,0,0.6,0,0.9c0,0.3,0,0.6,0,0.9
				c0,0.1,0,0.1,0,0.2c0,0.1,0,0.1,0,0.2c0.1,0,0.1,0,0.2,0c0,0,0-0.1,0-0.1c0-0.1,0-0.2,0-0.3c0-0.3,0-0.6,0-0.9c0-0.3,0-0.6,0-0.9
				c0-0.1,0-0.1,0-0.2C300.7,51.5,300.7,51.4,300.7,51.4L300.7,51.4z"/>
		</g>
	</g>
	<g>
		<g>
			<path class="st1" d="M295.3,54.5c0.1,0,0.2,0,0.3,0c0,0,0-0.1,0-0.1c0-0.1,0-0.2,0-0.3c0-0.3,0-0.6,0-0.9c0-0.3,0-0.6,0-0.9
				c0-0.1,0-0.1,0-0.2c0-0.1,0-0.1,0-0.2c-0.1,0-0.2,0-0.3,0c0,0,0,0.1,0,0.1c0,0.1,0,0.2,0,0.3c0,0.3,0,0.6,0,0.9
				c0,0.3,0,0.6,0,0.9c0,0.1,0,0.1,0,0.2C295.3,54.4,295.3,54.4,295.3,54.5L295.3,54.5z"/>
		</g>
	</g>
	<g>
		<g>
			<path class="st1" d="M300.7,58.8c-0.9,0.1-1.8,0.3-2.7,0.3c-0.9,0.1-1.8,0.3-2.6,0.5c-0.1,0,0,1.1,0,1.2c0,0.1,0,1.2,0,1.2
				c0.9-0.2,1.7-0.4,2.6-0.5c0.9-0.1,1.8-0.2,2.7-0.3c0,0,0-1.2,0-1.2C300.7,60,300.7,58.8,300.7,58.8L300.7,58.8z"/>
		</g>
	</g>
	<g>
		<g>
			<path class="st1" d="M295.3,61.9c0.1,0,0.1,0,0.2,0c0,0,0-0.1,0-0.1c0-0.1,0-0.2,0-0.3c0-0.3,0-0.6,0-0.9c0-0.3,0-0.6,0-0.9
				c0-0.1,0-0.1,0-0.2c0-0.1,0-0.1,0-0.2c-0.1,0-0.1,0-0.2,0c0,0,0,0.1,0,0.1c0,0.1,0,0.2,0,0.3c0,0.3,0,0.6,0,0.9
				c0,0.3,0,0.6,0,0.9c0,0.1,0,0.1,0,0.2C295.3,61.8,295.3,61.8,295.3,61.9L295.3,61.9z"/>
		</g>
	</g>
	<g>
		<g>
			<path class="st1" d="M293.5,55.3c-0.5,0.8-0.6,1.9-0.7,2.9c-0.1,0.8,0.7,1.5,1.5,1.5c0.9,0,1.4-0.7,1.5-1.5c0-0.2,0-0.3,0-0.5
				c0,0.2,0.1-0.3,0.1-0.3c0-0.1,0.1-0.3,0.1-0.4c0-0.1,0-0.1,0,0.1c0-0.1,0.1-0.1,0.1-0.2c0.4-0.6,0.1-1.7-0.5-2.1
				C294.8,54.4,294,54.6,293.5,55.3L293.5,55.3z"/>
		</g>
	</g>
	<path class="st3" d="M330.4,33.7l7.3-1.2v50.4l-7.3,0.9V33.7z M333.5,33.2l26.2-4.4v8.1l-26.2,4.2c0-0.3,0-0.7,0-1
		C333.5,37.8,333.5,35.5,333.5,33.2z M333.5,55l22.7-3.4v8l-22.7,3.3V55z"/>
	<g>
		<g>
			<path class="st1" d="M337,51.4c-0.4,0-0.7,0-1.1,0c-0.4,0-0.7,0.1-1.1,0.2c-0.7,0.1-1.4,0.3-2.1,0.5c0,0.2,0,0.4,0,0.6
				c0,0.5,0,1,0,1.6c0,1.8,0,3.5,0,5.3c0,1.8,0,3.5,0,5.3c0,0.4,0,0.8,0,1.2c0,0.3,0,0.7,0,1c0.7-0.2,1.4-0.4,2.1-0.5
				c0.4-0.1,0.7-0.2,1.1-0.2c0.4-0.1,0.7,0,1.1,0c0.1,0,0.1-6.9,0.1-7.5c0-1.8,0-3.5,0-5.3C337,53.4,337,51.5,337,51.4L337,51.4z"/>
		</g>
	</g>
	<g>
		<g>
			<path class="st1" d="M337,39.2c-0.7,0.2-1.5,0.2-2.2,0.3c-0.4,0.1-0.7,0.2-1.1,0.3c-0.2,0.1-0.4,0.1-0.5,0.1c-0.2,0-0.3,0-0.5,0
				c0,0,0,1.2,0,1.2c0,0.1,0,1.2,0,1.2c0.2,0,0.3,0,0.5,0c0.2,0,0.4,0,0.5-0.1c0.3-0.1,0.7-0.2,1.1-0.3c0.7-0.1,1.5-0.1,2.2-0.3
				c0,0,0-0.4,0-0.4c0-0.3,0-0.6,0-0.9c0-0.3,0-0.6,0-0.9C337,39.5,337,39.2,337,39.2L337,39.2z"/>
		</g>
	</g>
	<line class="st6" x1="332.5" y1="34.4" x2="335.5" y2="33.9"/>
	<line class="st7" x1="336" y1="33.8" x2="339" y2="33.3"/>
	<line class="st7" x1="336.5" y1="39.6" x2="339.5" y2="39.1"/>
	<g>
		<g>
			<path class="st1" d="M336.3,34.9c0,0.5,0,1,0,1.5c0,0.2,0,0.5,0,0.7c0,0.2,0,0.3,0,0.5c0,0.3,0,0.3,0,0.1
				c-0.5,1.9,2.4,2.7,2.9,0.8c0.1-0.6,0.1-1.2,0.1-1.8c0-0.6,0.1-1.1,0.1-1.7c-0.1-0.8-0.6-1.5-1.5-1.5
				C337,33.4,336.2,34.1,336.3,34.9L336.3,34.9z"/>
		</g>
	</g>
	<line class="st8" x1="337" y1="55.4" x2="339" y2="55.1"/>
	<line class="st8" x1="336.5" y1="61.5" x2="339.5" y2="61.1"/>
	<g>
		<g>
			<path class="st1" d="M338.1,55.2c-0.4,0-0.8,0.1-1.2,0.3c-0.6,0.4-0.9,1.2-0.6,1.9c0.3,0.7,1,1,1.8,0.9c0.2,0,0.5-0.1,0.7-0.2
				c-0.6-0.5-1.3-1-1.9-1.4c0,0.1,0,0.6-0.1,0.7c0.1-0.1,0.1-0.2,0.1-0.3c-0.1,0.1-0.2,0.2-0.2,0.3c-0.4,0.5-0.4,0.9-0.5,1.5
				c-0.1,0.6-0.2,1.2,0.1,1.7c0.3,0.6,0.9,0.9,1.6,0.9c-0.1-1-0.3-2-0.4-2.9c-0.2,0-0.3,0.1-0.5,0.1c-0.8,0.1-1.2,1.1-1,1.8
				c0.2,0.9,1,1.2,1.8,1c0.2,0,0.3-0.1,0.5-0.1c0.7-0.1,1.2-1,1.1-1.6c-0.1-0.7-0.7-1.3-1.5-1.3c0,0-0.1,0-0.1,0
				c0.3,0.1,0.5,0.1,0.8,0.2c0,0-0.1,0-0.1-0.1c0.2,0.2,0.4,0.4,0.5,0.5c0,0,0,0,0,0.1c0,0.3,0,0.5,0,0.8c0.1-0.3,0.2-0.6,0.2-1
				c0-0.5-0.1,0.2-0.1,0.2c0,0,0.4-0.4,0.4-0.5c0.4-0.6,0.3-1.3,0.4-2c0.1-1-1-1.7-1.9-1.4c-0.2,0.1-0.5,0.1-0.7,0.2
				c0.4,0.9,0.8,1.8,1.2,2.7c-0.1,0-0.2,0.1-0.3,0.1c0.8,0.1,1.5-0.7,1.5-1.5C339.6,55.8,338.9,55.2,338.1,55.2L338.1,55.2z"/>
		</g>
	</g>
	<path class="st3" d="M371.4,77.3c-2.1-1-3.8-2.6-4.9-4.9c-1.1-2.3-1.7-5.1-1.7-8.5v-6c0-3.3,0.6-6.3,1.7-8.8
		c1.1-2.5,2.7-4.6,4.9-6.2c2.1-1.6,4.7-2.6,7.8-3.1c3-0.5,5.7-0.3,7.9,0.7c2.2,0.9,3.9,2.5,5,4.8c1.2,2.3,1.7,5.1,1.7,8.5v6.2
		c0,3.4-0.6,6.4-1.7,9c-1.2,2.6-2.8,4.6-5,6.2c-2.2,1.6-4.8,2.5-7.9,2.9C376.1,78.6,373.5,78.3,371.4,77.3z M384,67.3
		c1.2-1.5,1.7-3.6,1.7-6.1V55c0-2.5-0.6-4.4-1.7-5.6c-1.2-1.2-2.8-1.6-4.9-1.3c-2.1,0.3-3.7,1.2-4.8,2.8c-1.1,1.5-1.7,3.5-1.7,6V63
		c0,2.5,0.6,4.4,1.7,5.6c1.1,1.2,2.7,1.7,4.9,1.4C381.2,69.7,382.9,68.8,384,67.3z"/>
	<path class="st3" d="M410.4,58.8c0,2.3,0.6,3.9,1.7,5c1.1,1.1,2.7,1.5,4.8,1.2c2.1-0.3,3.7-1.1,4.8-2.4c1.1-1.3,1.7-3.1,1.7-5.3
		l0.5,8.2c-0.7,2.1-1.9,3.9-3.5,5.5c-1.6,1.6-3.6,2.5-6,2.8c-3.9,0.5-7-0.5-9.1-2.9c-2.1-2.4-3.2-6-3.2-10.8V36.8l8.3-1.3V58.8z
		 M423.5,33.5l8.5-1.3V71l-8.5,1.1V33.5z"/>
	<g>
		<g>
			<path class="st1" d="M424.2,69c0.2,0,0.4,0,0.7,0c0-0.2,0-0.4,0-0.6c0-0.5,0-1,0-1.6c0-1.8,0-3.5,0-5.3c0-1.8,0-3.5,0-5.3
				c0-0.4,0-0.8,0-1.2c0-0.3,0-0.7,0-1c-0.2,0-0.4,0-0.7,0c0,0.2,0,0.4,0,0.6c0,0.5,0,1,0,1.6c0,1.8,0,3.5,0,5.3c0,1.8,0,3.5,0,5.3
				C424.2,67,424.2,69,424.2,69L424.2,69z"/>
		</g>
	</g>
	<path class="st3" d="M442.5,30.6l8.8-1.4v39.4l-8.8,1.1V30.6z M465.3,42.7c0-2.4-0.6-4.1-1.9-5.2c-1.3-1.1-3-1.5-5.3-1.2
		c-2.2,0.3-3.9,1.2-5.1,2.6c-1.2,1.4-1.8,3.2-1.8,5.4l-0.8-8c1.2-2.6,2.6-4.7,4.4-6.2c1.8-1.5,3.9-2.5,6.3-2.9
		c4.2-0.7,7.4,0.3,9.7,2.7c2.3,2.5,3.5,6.3,3.5,11.5v24.3l-9.1,1.1V42.7z"/>
	<g>
		<g>
			<path class="st1" d="M450.4,33c-0.5,0-0.9,0-1.4,0c0,0.2,0,0.4,0,0.6c0,0.5,0,1,0,1.6c0,1.8,0,3.5,0,5.3c0,1.8,0,3.5,0,5.3
				c0,0.2,0,2.2,0.1,2.2c0.5,0,0.9,0,1.4,0c0-0.2,0-0.4,0-0.6c0-0.5,0-1,0-1.6c0-1.8,0-3.5,0-5.3c0-1.8,0-3.5,0-5.3
				C450.5,35,450.5,33,450.4,33L450.4,33z"/>
		</g>
	</g>
	<path class="st3" d="M490.8,62.2c-2.1-1.1-3.7-2.8-4.7-5.2c-1.1-2.4-1.6-5.4-1.6-9v-7.7c0-3.6,0.5-6.7,1.6-9.4
		c1.1-2.7,2.6-4.9,4.7-6.6c2.1-1.7,4.5-2.7,7.4-3.2c2.3-0.4,4.5-0.1,6.4,0.9c1.9,1,3.5,2.6,4.7,4.7l-0.8,8.9c0-1.6-0.3-2.9-0.8-3.9
		c-0.6-1-1.4-1.7-2.5-2.2c-1.1-0.4-2.4-0.5-3.9-0.3c-2.4,0.4-4.2,1.4-5.5,3.1c-1.3,1.7-1.9,3.9-1.9,6.6v7.7c0,2.7,0.6,4.7,1.9,6
		c1.3,1.3,3.1,1.8,5.5,1.5c1.5-0.2,2.8-0.7,3.9-1.4c1.1-0.7,1.9-1.7,2.5-2.9c0.6-1.2,0.8-2.6,0.8-4.1l0.6,9c-0.8,2.2-2.2,4.1-4,5.7
		c-1.8,1.5-4,2.5-6.6,2.8C495.4,63.7,492.9,63.3,490.8,62.2z M508.4,3.8l9.7-1.6v58l-9.7,1.2V3.8z"/>
	<g>
		<g>
			<path class="st1" d="M509.2,38.2c0.7,0.1,1.3,0.2,2,0.4c0-0.2,0-0.4,0-0.6c0-0.5,0-1,0-1.6c0-1.8,0-3.5,0-5.3c0-1.8,0-3.5,0-5.3
				c0-0.4,0-0.8,0-1.2c0-0.3,0-0.7,0-1c-0.6-0.2-1.3-0.3-2-0.4c0,0.2,0,0.4,0,0.6c0,0.5,0,1,0,1.6c0,1.8,0,3.5,0,5.3
				c0,1.8,0,3.5,0,5.3c0,0.4,0,0.8,0,1.2C509.2,37.6,509.2,37.9,509.2,38.2L509.2,38.2z"/>
		</g>
	</g>
	<g>
		<g>
			<path class="st1" d="M509.2,59.2c0.3-0.1,0.5-0.1,0.8-0.2c0-0.2,0-0.4,0-0.6c0-0.5,0-1,0-1.6c0-1.8,0-3.5,0-5.3
				c0-1.8,0-3.5,0-5.3c0-0.4,0-0.8,0-1.2c0-0.3,0-0.7,0-1c-0.3,0.1-0.5,0.2-0.8,0.2c0,0.2,0,0.4,0,0.6c0,0.5,0,1,0,1.6
				c0,1.8,0,3.5,0,5.3c0,1.8,0,3.5,0,5.3c0,0.4,0,0.8,0,1.2C509.2,58.5,509.2,58.9,509.2,59.2L509.2,59.2z"/>
		</g>
	</g>
	<g>
		<g>
			<path class="st1" d="M332.1,36c0.1,0.8,0.4,1.7,0.2,2.4c-0.3,0.8,0.3,1.6,1,1.8c0.8,0.2,1.6-0.3,1.8-1c0.5-1.3,0-2.7-0.2-4
				c-0.1-0.8-1.1-1.2-1.8-1C332.3,34.4,332,35.2,332.1,36L332.1,36z"/>
		</g>
	</g>
</g>
</svg>
